<svg width="24" height="24" viewBox="0 0 24 24" fill="none" xmlns="http://www.w3.org/2000/svg">
<path d="M12 3.05176e-05C5.37 3.05176e-05 0 5.50945 0 12.3047C0 17.7423 3.438 22.3535 8.205 23.9788C8.805 24.0946 9.025 23.7142 9.025 23.3871C9.025 23.0949 9.015 22.3207 9.01 21.2953C5.672 22.0377 4.968 19.6444 4.968 19.6444C4.422 18.2243 3.633 17.8449 3.633 17.8449C2.546 17.082 3.717 17.0974 3.717 17.0974C4.922 17.1835 5.555 18.3648 5.555 18.3648C6.625 20.2464 8.364 19.7029 9.05 19.3881C9.158 18.5924 9.467 18.05 9.81 17.7423C7.145 17.4347 4.344 16.3765 4.344 11.6618C4.344 10.3185 4.809 9.22136 5.579 8.36003C5.444 8.04934 5.039 6.79837 5.684 5.1034C5.684 5.1034 6.689 4.77322 8.984 6.36462C9.944 6.09085 10.964 5.95549 11.984 5.94934C13.004 5.95549 14.024 6.09085 14.984 6.36462C17.264 4.77322 18.269 5.1034 18.269 5.1034C18.914 6.79837 18.509 8.04934 18.389 8.36003C19.154 9.22136 19.619 10.3185 19.619 11.6618C19.619 16.3888 16.814 17.4296 14.144 17.7321C14.564 18.1012 14.954 18.8559 14.954 20.0085C14.954 21.6552 14.939 22.978 14.939 23.3779C14.939 23.7009 15.149 24.0854 15.764 23.9624C20.565 22.3484 24 17.7341 24 12.3047C24 5.50945 18.627 3.05176e-05 12 3.05176e-05Z" fill="black"/>
</svg>
