<svg width="24" height="24" viewBox="0 0 24 24" fill="none" xmlns="http://www.w3.org/2000/svg">
<path d="M24 12.0734C24 5.40543 18.6275 3.05176e-05 12 3.05176e-05C5.37259 3.05176e-05 0 5.40543 0 12.0734C0 18.0995 4.38824 23.0943 10.125 24V15.5633H7.07814V12.0734H10.125V9.41345C10.125 6.38757 11.9165 4.71617 14.6576 4.71617C15.9705 4.71617 17.3438 4.95197 17.3438 4.95197V7.92315H15.8307C14.3399 7.92315 13.875 8.85381 13.875 9.80859V12.0734H17.2032L16.6711 15.5633H13.875V24C19.6119 23.0943 24 18.0995 24 12.0734Z" fill="black"/>
</svg>
