<svg width="25" height="24" viewBox="0 0 25 24" fill="none" xmlns="http://www.w3.org/2000/svg">
<path d="M3.3999 24C2.5749 24 1.8689 23.7317 1.2819 23.195C0.693902 22.6574 0.399902 22.0114 0.399902 21.2571V8.91429C0.399902 8.48 0.506402 8.06857 0.719402 7.68C0.931402 7.29143 1.2249 6.97143 1.5999 6.72L10.5999 0.548572C10.8749 0.365714 11.1624 0.228571 11.4624 0.137143C11.7624 0.0457142 12.0749 0 12.3999 0C12.7249 0 13.0374 0.0457142 13.3374 0.137143C13.6374 0.228571 13.9249 0.365714 14.1999 0.548572L23.1999 6.72C23.5749 6.97143 23.8689 7.29143 24.0819 7.68C24.2939 8.06857 24.3999 8.48 24.3999 8.91429V21.2571C24.3999 22.0114 24.1064 22.6574 23.5194 23.195C22.9314 23.7317 22.2249 24 21.3999 24H15.3999V14.4H9.3999V24H3.3999Z" fill="#9CB5CF"/>
</svg>
