<svg width="17" height="10" viewBox="0 0 17 10" fill="none" xmlns="http://www.w3.org/2000/svg">
<path d="M1.69995 10C1.28328 10 0.929118 9.85417 0.637451 9.5625C0.345785 9.27083 0.199951 8.91667 0.199951 8.5C0.199951 8.08333 0.345785 7.72917 0.637451 7.4375C0.929118 7.14583 1.28328 7 1.69995 7H14.7C15.1166 7 15.4708 7.14583 15.7625 7.4375C16.0541 7.72917 16.2 8.08333 16.2 8.5C16.2 8.91667 16.0541 9.27083 15.7625 9.5625C15.4708 9.85417 15.1166 10 14.7 10H1.69995ZM1.69995 3C1.28328 3 0.929118 2.85417 0.637451 2.5625C0.345785 2.27083 0.199951 1.91667 0.199951 1.5C0.199951 1.08333 0.345785 0.729167 0.637451 0.4375C0.929118 0.145833 1.28328 0 1.69995 0H14.7C15.1166 0 15.4708 0.145833 15.7625 0.4375C16.0541 0.729167 16.2 1.08333 16.2 1.5C16.2 1.91667 16.0541 2.27083 15.7625 2.5625C15.4708 2.85417 15.1166 3 14.7 3H1.69995Z" fill="#9CB5CF"/>
</svg>
