<svg width="25" height="24" viewBox="0 0 25 24" fill="none" xmlns="http://www.w3.org/2000/svg">
<path d="M0.799805 1.71429C0.799805 0.76752 1.56732 0 2.51409 0H23.0855C24.0323 0 24.7998 0.76752 24.7998 1.71429V5.14286C24.7998 6.08962 24.0323 6.85714 23.0855 6.85714H2.51409C1.56732 6.85714 0.799805 6.08962 0.799805 5.14286V1.71429Z" fill="#9CB5CF"/>
<path d="M0.799805 12C0.799805 11.0532 1.56732 10.2857 2.51409 10.2857H12.7998C13.7466 10.2857 14.5141 11.0532 14.5141 12V22.2857C14.5141 23.2325 13.7466 24 12.7998 24H2.51409C1.56732 24 0.799805 23.2325 0.799805 22.2857V12Z" fill="#9CB5CF"/>
<path d="M19.6569 10.2857C18.7101 10.2857 17.9426 11.0532 17.9426 12V22.2857C17.9426 23.2325 18.7101 24 19.6569 24H23.0855C24.0323 24 24.7998 23.2325 24.7998 22.2857V12C24.7998 11.0532 24.0323 10.2857 23.0855 10.2857H19.6569Z" fill="#9CB5CF"/>
</svg>
