<svg width="24" height="24" viewBox="0 0 24 24" fill="none" xmlns="http://www.w3.org/2000/svg">
<path d="M11.2488 23.5644C10.9663 23.2739 10.8184 22.9043 10.805 22.4554C10.7927 22.0066 10.9278 21.637 11.2103 21.3465L18.7608 13.5842H1.54093C1.10433 13.5842 0.738106 13.4321 0.442247 13.1279C0.147416 12.8248 0 12.4488 0 12C0 11.5512 0.147416 11.1747 0.442247 10.8705C0.738106 10.5674 1.10433 10.4158 1.54093 10.4158H18.7608L11.2103 2.65346C10.9278 2.36304 10.7927 1.9934 10.805 1.54455C10.8184 1.09571 10.9663 0.726072 11.2488 0.435643C11.5313 0.145214 11.8909 0 12.3274 0C12.764 0 13.1236 0.145214 13.4061 0.435643L23.5762 10.8911C23.7303 11.0231 23.8397 11.1879 23.9045 11.3853C23.9682 11.5839 24 11.7888 24 12C24 12.2112 23.9682 12.4092 23.9045 12.5941C23.8397 12.7789 23.7303 12.9505 23.5762 13.1089L13.4061 23.5644C13.1236 23.8548 12.764 24 12.3274 24C11.8909 24 11.5313 23.8548 11.2488 23.5644Z" fill="white"/>
</svg>
