<svg width="24" height="24" viewBox="0 0 24 24" fill="none" xmlns="http://www.w3.org/2000/svg">
<path d="M12.2449 10.285V14.4H19.1898C18.9092 16.165 17.0918 19.574 12.2449 19.574C8.06633 19.574 4.65408 16.185 4.65408 12C4.65408 7.81503 8.06735 4.42603 12.2449 4.42603C14.6224 4.42603 16.2153 5.41503 17.1276 6.27503L20.448 3.13703C18.3153 1.18603 15.55 3.05176e-05 12.2449 3.05176e-05C5.47449 3.05176e-05 0 5.36503 0 12C0 18.635 5.47449 24 12.2449 24C19.3122 24 24 19.131 24 12.274C24 11.486 23.9133 10.884 23.8071 10.285H12.2449Z" fill="black"/>
</svg>
